<?xml version="1.0" encoding="iso-8859-1"?>
<!-- Generator: Adobe Illustrator 19.0.0, SVG Export Plug-In . SVG Version: 6.00 Build 0)  -->
<svg version="1.1" id="Layer_1" xmlns="http://www.w3.org/2000/svg" xmlns:xlink="http://www.w3.org/1999/xlink" x="0px" y="0px"
	 viewBox="0 0 511.984 511.984" style="enable-background:new 0 0 511.984 511.984;" xml:space="preserve">
<polygon style="fill:#E6E9ED;" points="172.046,405.314 53.331,286.601 53.331,118.715 172.046,0 339.924,0 458.638,118.715 
	458.638,286.601 339.924,405.314 "/>
<path style="fill:#ED5564;" d="M255.988,336.318c0,11.781-9.554,21.326-21.335,21.326s-21.327-9.545-21.327-21.326
	s9.546-21.328,21.327-21.328S255.988,324.537,255.988,336.318z"/>
<path style="fill:#AC92EB;" d="M213.326,336.318c0,11.781-9.555,21.326-21.336,21.326c-11.78,0-21.335-9.545-21.335-21.326
	s9.555-21.328,21.335-21.328C203.771,314.99,213.326,324.537,213.326,336.318z"/>
<path style="fill:#A0D468;" d="M170.655,336.318c0,11.781-9.547,21.326-21.327,21.326c-11.789,0-21.335-9.545-21.335-21.326
	s9.546-21.328,21.335-21.328C161.108,314.99,170.655,324.537,170.655,336.318z"/>
<path style="fill:#AC92EB;" d="M298.643,336.318c0,11.781-9.531,21.326-21.312,21.326c-11.797,0-21.344-9.545-21.344-21.326
	s9.547-21.328,21.344-21.328C289.112,314.99,298.643,324.537,298.643,336.318z"/>
<path style="fill:#FC6E51;" d="M341.329,336.318c0,11.781-9.562,21.326-21.342,21.326c-11.781,0-21.344-9.545-21.344-21.326
	s9.562-21.328,21.344-21.328C331.767,314.99,341.329,324.537,341.329,336.318z"/>
<path style="fill:#48CFAD;" d="M383.985,336.318c0,11.781-9.562,21.326-21.344,21.326s-21.312-9.545-21.312-21.326
	s9.531-21.328,21.312-21.328S383.985,324.537,383.985,336.318z"/>
<g>
	<polygon style="fill:#CCD1D9;" points="458.638,118.715 450.482,110.544 53.331,275.054 53.331,286.601 61.495,294.771 
		458.638,130.262 	"/>
	<polygon style="fill:#CCD1D9;" points="339.924,0 328.392,0 247.872,194.385 267.574,202.556 348.095,8.157 	"/>
	<polygon style="fill:#CCD1D9;" points="163.882,8.157 245.966,206.337 265.676,198.181 183.593,0 172.046,0 	"/>
	<polygon style="fill:#CCD1D9;" points="61.495,110.544 53.331,118.715 53.331,130.262 450.482,294.771 458.638,286.601 
		458.638,275.054 	"/>
</g>
<path style="fill:#48CFAD;" d="M234.653,373.316c0,11.781-9.547,21.328-21.327,21.328c-11.789,0-21.336-9.547-21.336-21.328
	s9.547-21.328,21.336-21.328C225.106,351.988,234.653,361.535,234.653,373.316z"/>
<path style="fill:#FC6E51;" d="M191.99,373.316c0,11.781-9.554,21.328-21.335,21.328c-11.78,0-21.327-9.547-21.327-21.328
	s9.547-21.328,21.327-21.328C182.436,351.988,191.99,361.535,191.99,373.316z"/>
<path style="fill:#FFCE54;" d="M277.332,373.316c0,11.781-9.562,21.328-21.344,21.328c-11.78,0-21.335-9.547-21.335-21.328
	s9.555-21.328,21.335-21.328C267.769,351.988,277.332,361.535,277.332,373.316z"/>
<path style="fill:#5D9CEC;" d="M319.987,373.316c0,11.781-9.562,21.328-21.344,21.328s-21.312-9.547-21.312-21.328
	s9.53-21.328,21.312-21.328S319.987,361.535,319.987,373.316z"/>
<path style="fill:#ED5564;" d="M362.641,373.316c0,11.781-9.531,21.328-21.312,21.328c-11.796,0-21.342-9.547-21.342-21.328
	s9.546-21.328,21.342-21.328C353.11,351.988,362.641,361.535,362.641,373.316z"/>
<g>
	<path style="fill:#434A54;" d="M127.993,469.312h-4.352l150.284-244.459l-35.882-23.062L72.916,469.312h-8.921
		c-11.781,0-21.336,9.547-21.336,21.328s9.555,21.344,21.336,21.344h63.998c11.78,0,21.335-9.562,21.335-21.344
		S139.773,469.312,127.993,469.312z"/>
	<path style="fill:#434A54;" d="M383.985,469.312h4.343L238.044,224.853l35.882-23.062l165.135,267.521h8.921
		c11.781,0,21.343,9.547,21.343,21.328s-9.562,21.344-21.343,21.344h-63.997c-11.781,0-21.344-9.562-21.344-21.344
		S372.204,469.312,383.985,469.312z"/>
	<path style="fill:#434A54;" d="M287.987,202.65c0,17.687-14.327,31.999-31.999,31.999c-17.671,0-31.999-14.312-31.999-31.999
		c0-17.671,14.328-31.999,31.999-31.999C273.66,170.651,287.987,184.979,287.987,202.65z"/>
</g>
<path style="fill:#656D78;" d="M255.988,245.321c-23.522,0-42.662-19.14-42.662-42.67c0-23.515,19.14-42.655,42.662-42.655
	c23.531,0,42.655,19.14,42.655,42.655C298.643,226.181,279.519,245.321,255.988,245.321z M255.988,181.323
	c-11.765,0-21.335,9.578-21.335,21.328c0,11.765,9.57,21.343,21.335,21.343c11.766,0,21.344-9.578,21.344-21.343
	C277.332,190.901,267.754,181.323,255.988,181.323z"/>
<g>
</g>
<g>
</g>
<g>
</g>
<g>
</g>
<g>
</g>
<g>
</g>
<g>
</g>
<g>
</g>
<g>
</g>
<g>
</g>
<g>
</g>
<g>
</g>
<g>
</g>
<g>
</g>
<g>
</g>
</svg>
